# xmcd CD database file
#
# Track frame offsets:
#	150
#	22393
#	43725
#	51553
#	70959
#	89144
#	96769
#	113681
#	129709
#	152415
#	170633
#
# Disc length: 2380 seconds
#
# Revision: 1
# Processed by: cddbd v1.5.2PL0 Copyright (c) Steve Scherf et al.
# Submitted via: CDex 1.70beta2
#
DISCID=a1094a0b
DTITLE=石鹸屋 - TOHOHUM
DYEAR=2008
DGENRE=東方アレンジ
TTITLE0=Demystify
TTITLE1=lose one's faith
TTITLE2=KAGUYA THE HIPPIE　～みちのく編～
TTITLE3=ナイト・オブ・マウント
TTITLE4=フィルム・エンド
TTITLE5=KAGUYA THE HIPPIE　～コスモ編～
TTITLE6=バトルフィールド・アシンメトリック
TTITLE7=ミシャグジ・エンパイア
TTITLE8=after
TTITLE9=オレンジ・キャット・ファルセット
TTITLE10=KAGUYA THE HIPPIE　～ダメ、ゼッタイ!!編～
EXTD=YEAR: 2008
EXTT0=
EXTT1=
EXTT2=
EXTT3=
EXTT4=
EXTT5=
EXTT6=
EXTT7=
EXTT8=
EXTT9=
EXTT10=
PLAYORDER=
